<?xml version="1.0" encoding="UTF-8"?>
<svg width="177px" height="89px" viewBox="0 0 177 89" version="1.1" xmlns="http://www.w3.org/2000/svg" xmlns:xlink="http://www.w3.org/1999/xlink">
    <!-- Generator: Sketch 50 (54983) - http://www.bohemiancoding.com/sketch -->
    <title>bg_ilustration copy 2</title>
    <desc>Created with Sketch.</desc>
    <defs>
        <rect id="path-1" x="0" y="0" width="177" height="89"></rect>
    </defs>
    <g id="Web_Central_Mockups" stroke="none" stroke-width="1" fill="none" fill-rule="evenodd">
        <g id="3_1_4_cotizacion-personalizada" transform="translate(-57.000000, -2109.000000)">
            <g id="Group-17" transform="translate(57.000000, 362.000000)">
                <g id="bg_ilustration-copy-2" transform="translate(0.000000, 1747.000000)">
                    <mask id="mask-2" fill="white">
                        <use xlink:href="#path-1"></use>
                    </mask>
                    <use id="Mask" fill="#FFFFFF" xlink:href="#path-1"></use>
                    <g id="icon" mask="url(#mask-2)">
                        <g transform="translate(-13.000000, 0.000000)">
                            <rect id="Path" fill="#FCFCFD" x="93" y="36" width="44" height="131"></rect>
                            <path d="M92.190676,162.907295 L134.353541,162.907295 L134.353541,55.6133751 L163.543217,55.6133751 L163.543217,66.0415712 L174,66.0415712 L174,170.181459 L135.97519,170.181459 L135.97519,172 L92.190676,172 L92.190676,170.181459 L74.647098,170.181459 L74.8862279,144.721885 L66.2442975,144.721885 L66.2442975,64.7060802 L92.190676,64.7060802 L92.190676,162.907295 Z M93.8123246,11.9683907 L135.97519,11.9683907 L140.696024,26.2485551 L89.0313116,26.2485551 L93.8123246,11.9683907 Z M12.7298919,3 L54.8927569,19.2425548 L54.8927569,146.540426 L12.7298919,146.540426 L12.7298919,3 Z M92.190676,28.3352599 L135.97519,28.3352599 L135.97519,37.4279649 L92.190676,37.4279649 L92.190676,28.3352599 Z M3,157.575986 L74.3525408,157.575986 L74.3525408,172 L3,172 L3,157.575986 Z" id="Combined-Shape" fill="#F3F2F6"></path>
                            <path d="M145.84,127.153846 L175,127.153846 L175,138.115385 L136.12,138.115385 L136.12,134.461538 L136.12,76 L145.84,76 L145.84,127.153846 Z M82.66,76 L92.38,76 L92.38,171 L82.66,171 L82.66,76 Z M13,134.461538 L55.12,134.461538 L55.12,145.423077 L13,145.423077 L13,134.461538 Z M136.12,150.903846 L145.84,150.903846 L145.84,171 L136.12,171 L136.12,150.903846 Z" id="Combined-Shape" fill="#E7E7E9"></path>
                            <path d="M138.027523,30.1603774 L138.027523,155.792453 L138.027523,168.537736 L149.394495,168.537736 L149.394495,150.330189 L160.761468,150.330189 L172.12844,150.330189 L172.12844,141.226415 L151.394495,141.226415 C150.289926,141.226415 149.394495,140.330985 149.394495,139.226415 L149.394495,137.764151 C149.394495,136.659581 150.289926,135.764151 151.394495,135.764151 L172.12844,135.764151 L172.12844,68.3962264 L151.394495,68.3962264 C150.289926,68.3962264 149.394495,67.5007959 149.394495,66.3962264 L149.394495,64.9339623 C149.394495,63.8293928 150.289926,62.9339623 151.394495,62.9339623 L162.385321,62.9339623 L162.385321,57.4716981 L151.394495,57.4716981 C150.289926,57.4716981 149.394495,56.5762676 149.394495,55.4716981 L149.394495,54.009434 C149.394495,52.9048645 150.289926,52.009434 151.394495,52.009434 L162.385321,52.009434 L165.256881,52.009434 C166.36145,52.009434 167.256881,52.9048645 167.256881,54.009434 L167.256881,62.9339623 L172.12844,62.9339623 L175,62.9339623 C176.104569,62.9339623 177,63.8293928 177,64.9339623 L177,150.330189 L177,174 L160.761468,174 L149.394495,174 L77.9449541,174 L0,174 L0,145.04717 C-1.3527075e-16,143.9426 0.8954305,143.04717 2,143.04717 L11.3669725,143.04717 L11.3669725,2.12130776 C11.3669725,1.01673826 12.262403,0.121307758 13.3669725,0.121307758 C13.6128112,0.121307758 13.8565433,0.166632062 14.0859477,0.255008056 L57.1776909,16.8557165 C57.9495413,17.1530649 58.4587156,17.8948709 58.4587156,18.7220162 L58.4587156,143.04717 L75.9449541,143.04717 C77.0495236,143.04717 77.9449541,143.9426 77.9449541,145.04717 L77.9449541,168.537736 L90.9357798,168.537736 L90.9357798,155.792453 L90.9357798,30.1603774 L85.940367,30.1603774 C85.1119398,30.1603774 84.440367,29.4888045 84.440367,28.6603774 L84.440367,26.1981132 C84.440367,25.3696861 85.1119398,24.6981132 85.940367,24.6981132 L144.646789,24.6981132 C145.475216,24.6981132 146.146789,25.3696861 146.146789,26.1981132 L146.146789,28.6603774 C146.146789,29.4888045 145.475216,30.1603774 144.646789,30.1603774 L138.027523,30.1603774 Z M133.155963,30.1603774 L95.8073394,30.1603774 L95.8073394,150.330189 L133.155963,150.330189 L133.155963,30.1603774 Z M133.155963,168.537736 L133.155963,155.792453 L95.8073394,155.792453 L95.8073394,168.537736 L133.155963,168.537736 Z M60.0825688,168.537736 L60.0825688,161.254717 L53.587156,161.254717 L53.587156,168.537736 L60.0825688,168.537736 Z M64.9541284,168.537736 L73.0733945,168.537736 L73.0733945,161.254717 L64.9541284,161.254717 L64.9541284,168.537736 Z M48.7155963,168.537736 L48.7155963,161.254717 L29.2293578,161.254717 L29.2293578,168.537736 L48.7155963,168.537736 Z M24.3577982,168.537736 L24.3577982,161.254717 L17.8623853,161.254717 L17.8623853,168.537736 L24.3577982,168.537736 Z M12.9908257,168.537736 L12.9908257,161.254717 L4.87155963,161.254717 L4.87155963,168.537736 L12.9908257,168.537736 Z M4.87155963,155.792453 L73.0733945,155.792453 L73.0733945,148.509434 L58.4587156,148.509434 L11.3669725,148.509434 L4.87155963,148.509434 L4.87155963,155.792453 Z M68.2018349,68.3962264 L68.2018349,133.764151 C68.2018349,134.86872 67.3064044,135.764151 66.2018349,135.764151 L65.3302752,135.764151 C64.2257057,135.764151 63.3302752,134.86872 63.3302752,133.764151 L63.3302752,68.3962264 L63.3302752,64.9339623 C63.3302752,63.8293928 64.2257057,62.9339623 65.3302752,62.9339623 L79.1926606,62.9339623 C80.2972301,62.9339623 81.1926606,63.8293928 81.1926606,64.9339623 L81.1926606,66.3962264 C81.1926606,67.5007959 80.2972301,68.3962264 79.1926606,68.3962264 L68.2018349,68.3962264 Z M165.633028,168.537736 L172.12844,168.537736 L172.12844,155.792453 L165.633028,155.792453 L165.633028,168.537736 Z M151.394495,77.5 L152.266055,77.5 C153.370625,77.5 154.266055,78.3954305 154.266055,79.5 L154.266055,86.4245283 C154.266055,87.5290978 153.370625,88.4245283 152.266055,88.4245283 L151.394495,88.4245283 C150.289926,88.4245283 149.394495,87.5290978 149.394495,86.4245283 L149.394495,79.5 C149.394495,78.3954305 150.289926,77.5 151.394495,77.5 Z M161.137615,77.5 L162.009174,77.5 C163.113744,77.5 164.009174,78.3954305 164.009174,79.5 L164.009174,86.4245283 C164.009174,87.5290978 163.113744,88.4245283 162.009174,88.4245283 L161.137615,88.4245283 C160.033045,88.4245283 159.137615,87.5290978 159.137615,86.4245283 L159.137615,79.5 C159.137615,78.3954305 160.033045,77.5 161.137615,77.5 Z M151.394495,97.5283019 L152.266055,97.5283019 C153.370625,97.5283019 154.266055,98.4237324 154.266055,99.5283019 L154.266055,106.45283 C154.266055,107.5574 153.370625,108.45283 152.266055,108.45283 L151.394495,108.45283 C150.289926,108.45283 149.394495,107.5574 149.394495,106.45283 L149.394495,99.5283019 C149.394495,98.4237324 150.289926,97.5283019 151.394495,97.5283019 Z M161.137615,97.5283019 L162.009174,97.5283019 C163.113744,97.5283019 164.009174,98.4237324 164.009174,99.5283019 L164.009174,106.45283 C164.009174,107.5574 163.113744,108.45283 162.009174,108.45283 L161.137615,108.45283 C160.033045,108.45283 159.137615,107.5574 159.137615,106.45283 L159.137615,99.5283019 C159.137615,98.4237324 160.033045,97.5283019 161.137615,97.5283019 Z M151.394495,117.556604 L152.266055,117.556604 C153.370625,117.556604 154.266055,118.452034 154.266055,119.556604 L154.266055,126.481132 C154.266055,127.585702 153.370625,128.481132 152.266055,128.481132 L151.394495,128.481132 C150.289926,128.481132 149.394495,127.585702 149.394495,126.481132 L149.394495,119.556604 C149.394495,118.452034 150.289926,117.556604 151.394495,117.556604 Z M161.137615,117.556604 L162.009174,117.556604 C163.113744,117.556604 164.009174,118.452034 164.009174,119.556604 L164.009174,126.481132 C164.009174,127.585702 163.113744,128.481132 162.009174,128.481132 L161.137615,128.481132 C160.033045,128.481132 159.137615,127.585702 159.137615,126.481132 L159.137615,119.556604 C159.137615,118.452034 160.033045,117.556604 161.137615,117.556604 Z M154.266055,155.792453 L154.266055,168.537736 L160.761468,168.537736 L160.761468,155.792453 L154.266055,155.792453 Z M16.2385321,143.04717 L53.587156,143.04717 L53.587156,21.2907047 L16.2385321,7.21885681 L16.2385321,143.04717 Z M44.2201835,30.1603774 L45.0917431,30.1603774 C46.1963126,30.1603774 47.0917431,31.0558079 47.0917431,32.1603774 L47.0917431,39.0849057 C47.0917431,40.1894752 46.1963126,41.0849057 45.0917431,41.0849057 L44.2201835,41.0849057 C43.115614,41.0849057 42.2201835,40.1894752 42.2201835,39.0849057 L42.2201835,32.1603774 C42.2201835,31.0558079 43.115614,30.1603774 44.2201835,30.1603774 Z M44.2201835,50.1886792 L45.0917431,50.1886792 C46.1963126,50.1886792 47.0917431,51.0841097 47.0917431,52.1886792 L47.0917431,59.1132075 C47.0917431,60.217777 46.1963126,61.1132075 45.0917431,61.1132075 L44.2201835,61.1132075 C43.115614,61.1132075 42.2201835,60.217777 42.2201835,59.1132075 L42.2201835,52.1886792 C42.2201835,51.0841097 43.115614,50.1886792 44.2201835,50.1886792 Z M34.4770642,30.1603774 L35.3486239,30.1603774 C36.4531934,30.1603774 37.3486239,31.0558079 37.3486239,32.1603774 L37.3486239,39.0849057 C37.3486239,40.1894752 36.4531934,41.0849057 35.3486239,41.0849057 L34.4770642,41.0849057 C33.3724947,41.0849057 32.4770642,40.1894752 32.4770642,39.0849057 L32.4770642,32.1603774 C32.4770642,31.0558079 33.3724947,30.1603774 34.4770642,30.1603774 Z M34.4770642,50.1886792 L35.3486239,50.1886792 C36.4531934,50.1886792 37.3486239,51.0841097 37.3486239,52.1886792 L37.3486239,59.1132075 C37.3486239,60.217777 36.4531934,61.1132075 35.3486239,61.1132075 L34.4770642,61.1132075 C33.3724947,61.1132075 32.4770642,60.217777 32.4770642,59.1132075 L32.4770642,52.1886792 C32.4770642,51.0841097 33.3724947,50.1886792 34.4770642,50.1886792 Z M24.733945,30.1603774 L25.6055046,30.1603774 C26.7100741,30.1603774 27.6055046,31.0558079 27.6055046,32.1603774 L27.6055046,39.0849057 C27.6055046,40.1894752 26.7100741,41.0849057 25.6055046,41.0849057 L24.733945,41.0849057 C23.6293755,41.0849057 22.733945,40.1894752 22.733945,39.0849057 L22.733945,32.1603774 C22.733945,31.0558079 23.6293755,30.1603774 24.733945,30.1603774 Z M24.733945,50.1886792 L25.6055046,50.1886792 C26.7100741,50.1886792 27.6055046,51.0841097 27.6055046,52.1886792 L27.6055046,59.1132075 C27.6055046,60.217777 26.7100741,61.1132075 25.6055046,61.1132075 L24.733945,61.1132075 C23.6293755,61.1132075 22.733945,60.217777 22.733945,59.1132075 L22.733945,52.1886792 C22.733945,51.0841097 23.6293755,50.1886792 24.733945,50.1886792 Z M44.2201835,70.2169811 L45.0917431,70.2169811 C46.1963126,70.2169811 47.0917431,71.1124116 47.0917431,72.2169811 L47.0917431,79.1415094 C47.0917431,80.2460789 46.1963126,81.1415094 45.0917431,81.1415094 L44.2201835,81.1415094 C43.115614,81.1415094 42.2201835,80.2460789 42.2201835,79.1415094 L42.2201835,72.2169811 C42.2201835,71.1124116 43.115614,70.2169811 44.2201835,70.2169811 Z M34.4770642,70.2169811 L35.3486239,70.2169811 C36.4531934,70.2169811 37.3486239,71.1124116 37.3486239,72.2169811 L37.3486239,79.1415094 C37.3486239,80.2460789 36.4531934,81.1415094 35.3486239,81.1415094 L34.4770642,81.1415094 C33.3724947,81.1415094 32.4770642,80.2460789 32.4770642,79.1415094 L32.4770642,72.2169811 C32.4770642,71.1124116 33.3724947,70.2169811 34.4770642,70.2169811 Z M24.733945,70.2169811 L25.6055046,70.2169811 C26.7100741,70.2169811 27.6055046,71.1124116 27.6055046,72.2169811 L27.6055046,79.1415094 C27.6055046,80.2460789 26.7100741,81.1415094 25.6055046,81.1415094 L24.733945,81.1415094 C23.6293755,81.1415094 22.733945,80.2460789 22.733945,79.1415094 L22.733945,72.2169811 C22.733945,71.1124116 23.6293755,70.2169811 24.733945,70.2169811 Z M44.2201835,90.245283 L45.0917431,90.245283 C46.1963126,90.245283 47.0917431,91.1407135 47.0917431,92.245283 L47.0917431,99.1698113 C47.0917431,100.274381 46.1963126,101.169811 45.0917431,101.169811 L44.2201835,101.169811 C43.115614,101.169811 42.2201835,100.274381 42.2201835,99.1698113 L42.2201835,92.245283 C42.2201835,91.1407135 43.115614,90.245283 44.2201835,90.245283 Z M34.4770642,90.245283 L35.3486239,90.245283 C36.4531934,90.245283 37.3486239,91.1407135 37.3486239,92.245283 L37.3486239,99.1698113 C37.3486239,100.274381 36.4531934,101.169811 35.3486239,101.169811 L34.4770642,101.169811 C33.3724947,101.169811 32.4770642,100.274381 32.4770642,99.1698113 L32.4770642,92.245283 C32.4770642,91.1407135 33.3724947,90.245283 34.4770642,90.245283 Z M24.733945,90.245283 L25.6055046,90.245283 C26.7100741,90.245283 27.6055046,91.1407135 27.6055046,92.245283 L27.6055046,99.1698113 C27.6055046,100.274381 26.7100741,101.169811 25.6055046,101.169811 L24.733945,101.169811 C23.6293755,101.169811 22.733945,100.274381 22.733945,99.1698113 L22.733945,92.245283 C22.733945,91.1407135 23.6293755,90.245283 24.733945,90.245283 Z M44.2201835,110.273585 L45.0917431,110.273585 C46.1963126,110.273585 47.0917431,111.169015 47.0917431,112.273585 L47.0917431,119.198113 C47.0917431,120.302683 46.1963126,121.198113 45.0917431,121.198113 L44.2201835,121.198113 C43.115614,121.198113 42.2201835,120.302683 42.2201835,119.198113 L42.2201835,112.273585 C42.2201835,111.169015 43.115614,110.273585 44.2201835,110.273585 Z M76.6972477,77.5 L77.5688073,77.5 C78.6733768,77.5 79.5688073,78.3954305 79.5688073,79.5 L79.5688073,86.4245283 C79.5688073,87.5290978 78.6733768,88.4245283 77.5688073,88.4245283 L76.6972477,88.4245283 C75.5926782,88.4245283 74.6972477,87.5290978 74.6972477,86.4245283 L74.6972477,79.5 C74.6972477,78.3954305 75.5926782,77.5 76.6972477,77.5 Z M76.6972477,97.5283019 L77.5688073,97.5283019 C78.6733768,97.5283019 79.5688073,98.4237324 79.5688073,99.5283019 L79.5688073,106.45283 C79.5688073,107.5574 78.6733768,108.45283 77.5688073,108.45283 L76.6972477,108.45283 C75.5926782,108.45283 74.6972477,107.5574 74.6972477,106.45283 L74.6972477,99.5283019 C74.6972477,98.4237324 75.5926782,97.5283019 76.6972477,97.5283019 Z M76.6972477,117.556604 L77.5688073,117.556604 C78.6733768,117.556604 79.5688073,118.452034 79.5688073,119.556604 L79.5688073,126.481132 C79.5688073,127.585702 78.6733768,128.481132 77.5688073,128.481132 L76.6972477,128.481132 C75.5926782,128.481132 74.6972477,127.585702 74.6972477,126.481132 L74.6972477,119.556604 C74.6972477,118.452034 75.5926782,117.556604 76.6972477,117.556604 Z M104.302752,123.018868 L105.174312,123.018868 C106.278881,123.018868 107.174312,123.914298 107.174312,125.018868 L107.174312,131.943396 C107.174312,133.047966 106.278881,133.943396 105.174312,133.943396 L104.302752,133.943396 C103.198183,133.943396 102.302752,133.047966 102.302752,131.943396 L102.302752,125.018868 C102.302752,123.914298 103.198183,123.018868 104.302752,123.018868 Z M114.045872,123.018868 L114.917431,123.018868 C116.022001,123.018868 116.917431,123.914298 116.917431,125.018868 L116.917431,131.943396 C116.917431,133.047966 116.022001,133.943396 114.917431,133.943396 L114.045872,133.943396 C112.941302,133.943396 112.045872,133.047966 112.045872,131.943396 L112.045872,125.018868 C112.045872,123.914298 112.941302,123.018868 114.045872,123.018868 Z M123.788991,123.018868 L124.66055,123.018868 C125.76512,123.018868 126.66055,123.914298 126.66055,125.018868 L126.66055,131.943396 C126.66055,133.047966 125.76512,133.943396 124.66055,133.943396 L123.788991,133.943396 C122.684421,133.943396 121.788991,133.047966 121.788991,131.943396 L121.788991,125.018868 C121.788991,123.914298 122.684421,123.018868 123.788991,123.018868 Z M104.302752,102.990566 L105.174312,102.990566 C106.278881,102.990566 107.174312,103.885997 107.174312,104.990566 L107.174312,111.915094 C107.174312,113.019664 106.278881,113.915094 105.174312,113.915094 L104.302752,113.915094 C103.198183,113.915094 102.302752,113.019664 102.302752,111.915094 L102.302752,104.990566 C102.302752,103.885997 103.198183,102.990566 104.302752,102.990566 Z M114.045872,102.990566 L114.917431,102.990566 C116.022001,102.990566 116.917431,103.885997 116.917431,104.990566 L116.917431,111.915094 C116.917431,113.019664 116.022001,113.915094 114.917431,113.915094 L114.045872,113.915094 C112.941302,113.915094 112.045872,113.019664 112.045872,111.915094 L112.045872,104.990566 C112.045872,103.885997 112.941302,102.990566 114.045872,102.990566 Z M123.788991,102.990566 L124.66055,102.990566 C125.76512,102.990566 126.66055,103.885997 126.66055,104.990566 L126.66055,111.915094 C126.66055,113.019664 125.76512,113.915094 124.66055,113.915094 L123.788991,113.915094 C122.684421,113.915094 121.788991,113.019664 121.788991,111.915094 L121.788991,104.990566 C121.788991,103.885997 122.684421,102.990566 123.788991,102.990566 Z M104.302752,82.9622642 L105.174312,82.9622642 C106.278881,82.9622642 107.174312,83.8576947 107.174312,84.9622642 L107.174312,91.8867925 C107.174312,92.991362 106.278881,93.8867925 105.174312,93.8867925 L104.302752,93.8867925 C103.198183,93.8867925 102.302752,92.991362 102.302752,91.8867925 L102.302752,84.9622642 C102.302752,83.8576947 103.198183,82.9622642 104.302752,82.9622642 Z M114.045872,82.9622642 L114.917431,82.9622642 C116.022001,82.9622642 116.917431,83.8576947 116.917431,84.9622642 L116.917431,91.8867925 C116.917431,92.991362 116.022001,93.8867925 114.917431,93.8867925 L114.045872,93.8867925 C112.941302,93.8867925 112.045872,92.991362 112.045872,91.8867925 L112.045872,84.9622642 C112.045872,83.8576947 112.941302,82.9622642 114.045872,82.9622642 Z M123.788991,82.9622642 L124.66055,82.9622642 C125.76512,82.9622642 126.66055,83.8576947 126.66055,84.9622642 L126.66055,91.8867925 C126.66055,92.991362 125.76512,93.8867925 124.66055,93.8867925 L123.788991,93.8867925 C122.684421,93.8867925 121.788991,92.991362 121.788991,91.8867925 L121.788991,84.9622642 C121.788991,83.8576947 122.684421,82.9622642 123.788991,82.9622642 Z M104.302752,62.9339623 L105.174312,62.9339623 C106.278881,62.9339623 107.174312,63.8293928 107.174312,64.9339623 L107.174312,71.8584906 C107.174312,72.9630601 106.278881,73.8584906 105.174312,73.8584906 L104.302752,73.8584906 C103.198183,73.8584906 102.302752,72.9630601 102.302752,71.8584906 L102.302752,64.9339623 C102.302752,63.8293928 103.198183,62.9339623 104.302752,62.9339623 Z M114.045872,62.9339623 L114.917431,62.9339623 C116.022001,62.9339623 116.917431,63.8293928 116.917431,64.9339623 L116.917431,71.8584906 C116.917431,72.9630601 116.022001,73.8584906 114.917431,73.8584906 L114.045872,73.8584906 C112.941302,73.8584906 112.045872,72.9630601 112.045872,71.8584906 L112.045872,64.9339623 C112.045872,63.8293928 112.941302,62.9339623 114.045872,62.9339623 Z M123.788991,62.9339623 L124.66055,62.9339623 C125.76512,62.9339623 126.66055,63.8293928 126.66055,64.9339623 L126.66055,71.8584906 C126.66055,72.9630601 125.76512,73.8584906 124.66055,73.8584906 L123.788991,73.8584906 C122.684421,73.8584906 121.788991,72.9630601 121.788991,71.8584906 L121.788991,64.9339623 C121.788991,63.8293928 122.684421,62.9339623 123.788991,62.9339623 Z M104.302752,42.9056604 L105.174312,42.9056604 C106.278881,42.9056604 107.174312,43.8010909 107.174312,44.9056604 L107.174312,51.8301887 C107.174312,52.9347582 106.278881,53.8301887 105.174312,53.8301887 L104.302752,53.8301887 C103.198183,53.8301887 102.302752,52.9347582 102.302752,51.8301887 L102.302752,44.9056604 C102.302752,43.8010909 103.198183,42.9056604 104.302752,42.9056604 Z M114.045872,42.9056604 L114.917431,42.9056604 C116.022001,42.9056604 116.917431,43.8010909 116.917431,44.9056604 L116.917431,51.8301887 C116.917431,52.9347582 116.022001,53.8301887 114.917431,53.8301887 L114.045872,53.8301887 C112.941302,53.8301887 112.045872,52.9347582 112.045872,51.8301887 L112.045872,44.9056604 C112.045872,43.8010909 112.941302,42.9056604 114.045872,42.9056604 Z M123.788991,42.9056604 L124.66055,42.9056604 C125.76512,42.9056604 126.66055,43.8010909 126.66055,44.9056604 L126.66055,51.8301887 C126.66055,52.9347582 125.76512,53.8301887 124.66055,53.8301887 L123.788991,53.8301887 C122.684421,53.8301887 121.788991,52.9347582 121.788991,51.8301887 L121.788991,44.9056604 C121.788991,43.8010909 122.684421,42.9056604 123.788991,42.9056604 Z M34.4770642,110.273585 L35.3486239,110.273585 C36.4531934,110.273585 37.3486239,111.169015 37.3486239,112.273585 L37.3486239,119.198113 C37.3486239,120.302683 36.4531934,121.198113 35.3486239,121.198113 L34.4770642,121.198113 C33.3724947,121.198113 32.4770642,120.302683 32.4770642,119.198113 L32.4770642,112.273585 C32.4770642,111.169015 33.3724947,110.273585 34.4770642,110.273585 Z M24.733945,110.273585 L25.6055046,110.273585 C26.7100741,110.273585 27.6055046,111.169015 27.6055046,112.273585 L27.6055046,119.198113 C27.6055046,120.302683 26.7100741,121.198113 25.6055046,121.198113 L24.733945,121.198113 C23.6293755,121.198113 22.733945,120.302683 22.733945,119.198113 L22.733945,112.273585 C22.733945,111.169015 23.6293755,110.273585 24.733945,110.273585 Z" id="Combined-Shape" fill="#D9D9DF"></path>
                        </g>
                    </g>
                </g>
            </g>
        </g>
    </g>
</svg>