
<svg width="316px" height="106px" viewBox="0 0 316 106" version="1.1" xmlns="http://www.w3.org/2000/svg" xmlns:xlink="http://www.w3.org/1999/xlink">
    <g id="MU_formalizacion" stroke="none" stroke-width="1" fill="none" fill-rule="evenodd">
        <g id="icon-copy" transform="translate(158.000000, 53.000000) scale(-1, 1) translate(-158.000000, -53.000000) ">
            <path d="M285,89 L263,89 L254,89 L254,66 L263,66 L263,19 L285,19 L285,38 L304,38 L304,89 L285,89 Z M51,30 L75,30 L75,102 L51,102 L51,30 Z" id="Combined-Shape" fill="#FCFCFD"></path>
            <path d="M179,89 L179,66 L196,66 L196,41 L213,41 L213,104.046342 L196,104.046342 L196,104.032448 L179,104.032448 L179,96.937475 L110,96.937475 L110,89 L179,89 Z M51.0287926,99.9963221 L74,99.9963221 L74,41 L90.0457867,41 L90.0457867,46.7385931 L95.7939599,46.7385931 L95.7939599,104.046342 L75.0974727,104.046342 L75.0974727,105 L51.0287926,105 L51.0287926,103.999264 L41.3849545,103.999264 L41.516406,89.9889662 L36.7658711,89.9889662 L36.7658711,45.9566003 L51.0287926,45.9566003 L51.0287926,99.9963221 Z M51.9202252,16.9352683 L75.0974727,16.9352683 L77.6925513,24.7935836 L49.292066,24.7935836 L51.9202252,16.9352683 Z M7.34859556,12 L30.525843,20.9382106 L30.525843,90.9897018 L7.34859556,90.9897018 L7.34859556,12 Z M215,28 L236.79396,28 L236.79396,104.027787 L215,104.027787 L215,28 Z M51.0287926,25.9418886 L75.0974727,25.9418886 L75.0974727,30.9455665 L51.0287926,30.9455665 L51.0287926,25.9418886 Z M2,97 L41.2230341,97 L41.2230341,104.937475 L2,104.937475 L2,97 Z M245,89 L314,89 L314,96.937475 L245,96.937475 L245,89 Z M98,97 L121.177247,97 L121.177247,104.937475 L98,104.937475 L98,97 Z" id="Combined-Shape" fill="#F3F2F6"></path>
            <path d="M96,86 L74.64,86 L74.64,84 L74.64,52 L79.98,52 L79.98,80 L96,80 L96,60 L101.34,60 L101.34,104 L96,104 L96,86 Z M207,103.539062 L195,103.539062 L195,97.5390625 L207,97.5390625 L207,48 L212.34,48 L212.34,104 L207,104 L207,103.539063 Z M45,52 L50.34,52 L50.34,104 L45,104 L45,52 Z M214,103.539062 L214,97.5390625 L237.14,97.5390625 L237.14,103.539062 L214,103.539062 Z M285,47.5390625 L290.331055,47.5390625 L290.387695,85 L304,85 L304,89 L285,89 L285,47.5390625 Z M245,99 L313,99 L313,103 L245,103 L245,99 Z M7,84 L30.14,84 L30.14,90 L7,90 L7,84 Z M74.64,93 L79.98,93 L79.98,104 L74.64,104 L74.64,93 Z" id="Combined-Shape" fill="#E7E7E9"></path>
            <path d="M224,26 L224,13.5 C224,12.6715729 224.671573,12 225.5,12 C226.328427,12 227,12.6715729 227,13.5 L227,26 L236,26 L237,26 C238.104569,26 239,26.8954305 239,28 L239,65 L260,65 L260,20 C260,18.8954305 260.895431,18 262,18 L263,18 L284,18 C285.104569,18 286,18.8954305 286,20 L286,88 L303,88 L303,40 L294.5,40 C293.671573,40 293,39.3284271 293,38.5 C293,37.6715729 293.671573,37 294.5,37 L304,37 C305.104569,37 306,37.8954305 306,39 L306,40 L306,88 L314,88 C315.104569,88 316,88.8954305 316,90 L316,91 L316,104 L316,106 L42.7155963,106 L0,106 L-2.22044605e-16,91 C-3.57315355e-16,89.8954305 0.8954305,89 2,89 L6,89 L6,12.9160552 C6,11.8114857 6.8954305,10.9160552 8,10.9160552 C8.24633257,10.9160552 8.49054568,10.9615617 8.72034578,11.050284 L30.5276852,19.4697652 C31.2988164,19.7674872 31.8073394,20.5089278 31.8073394,21.3355364 L31.8073394,89 L40.7155963,89 C41.8201658,89 42.7155963,89.8954305 42.7155963,91 L42.7155963,103 L49.8348624,103 L49.8348624,96 L49.8348624,27 L47.7752294,27 C46.9468022,27 46.2752294,26.3284271 46.2752294,25.5 C46.2752294,24.6715729 46.9468022,24 47.7752294,24 L48.0550459,24 L50.5124942,15.7156122 C50.6384073,15.2911426 51.0284524,15 51.4712036,15 L59.030581,15 L60.4246123,0.901601157 C60.4752067,0.389919875 60.9055828,-6.82703417e-16 61.4197594,-7.77156117e-16 L65.8371214,2.22044605e-16 C66.3512979,1.27591905e-16 66.781674,0.389919875 66.8322684,0.901601157 L68.2262997,15 L74.8957689,15 C75.33852,15 75.7285652,15.2911426 75.8544782,15.7156122 L78.3119266,24 L78.5917431,24 C79.4201702,24 80.0917431,24.6715729 80.0917431,25.5 C80.0917431,26.3284271 79.4201702,27 78.5917431,27 L76.0823132,27 L75.6422018,27 L75.6422018,96 L75.6422018,103 L81.8715596,103 L81.8715596,93 L88.1009174,93 L94.3302752,93 L94.3302752,88 L83.3715596,88 C82.5431325,88 81.8715596,87.3284271 81.8715596,86.5 C81.8715596,85.6715729 82.5431325,85 83.3715596,85 L94.3302752,85 L94.3302752,48 L83.3715596,48 C82.5431325,48 81.8715596,47.3284271 81.8715596,46.5 C81.8715596,45.6715729 82.5431325,45 83.3715596,45 L88.9908257,45 L88.9908257,42 L83.3715596,42 C82.5431325,42 81.8715596,41.3284271 81.8715596,40.5 C81.8715596,39.6715729 82.5431325,39 83.3715596,39 L88.7706422,39 C88.8450558,39 88.9185203,39.004064 88.9908257,39.0119821 L88.9908257,39 L89.6605505,39 C90.76512,39 91.6605505,39.8954305 91.6605505,41 L91.6605505,45 L94.3302752,45 L95,45 C96.1045695,45 97,45.8954305 97,47 L97,59 L121,59 C122.104569,59 123,59.8954305 123,61 L123,62 L123,79 L178,79 L178,68 L178,67 C178,65.8954305 178.895431,65 180,65 L187.5,65 C188.328427,65 189,65.6715729 189,66.5 C189,67.3284271 188.328427,68 187.5,68 L181,68 L181,79 L187.5,79 C188.328427,79 189,79.6715729 189,80.5 C189,81.3284271 188.328427,82 187.5,82 L110.5,82 C109.671573,82 109,81.3284271 109,80.5 C109,79.6715729 109.671573,79 110.5,79 L120,79 L120,62 L97,62 L97,93 L97,103 L120,103 L120,99 L110.5,99 C109.671573,99 109,98.3284271 109,97.5 C109,96.6715729 109.671573,96 110.5,96 L187.5,96 C188.328427,96 189,96.6715729 189,97.5 C189,98.3284271 188.328427,99 187.5,99 L181,99 L181,103 L193,103 L193,42 L193,41 C193,39.8954305 193.895431,39 195,39 L204.5,39 C205.328427,39 206,39.6715729 206,40.5 C206,41.3284271 205.328427,42 204.5,42 L196,42 L196,103 L212,103 L212,28 C212,26.8954305 212.895431,26 214,26 L215,26 L224,26 Z M178,103 L178,99 L123,99 L123,103 L178,103 Z M239,103 L243,103 L243,91 L243,90 C243,88.8954305 243.895431,88 245,88 L260,88 L260,68 L239,68 L239,103 Z M236,103 L236,37 L215,37 L215,103 L236,103 Z M313,103 L313,99 L300,99 L300,103 L313,103 Z M297,103 L297,99 L288,99 L288,103 L297,103 Z M285,103 L285,99 L261,99 L261,103 L285,103 Z M258,103 L258,99 L246,99 L246,103 L258,103 Z M90.7706422,103 L94.3302752,103 L94.3302752,96 L90.7706422,96 L90.7706422,103 Z M88.1009174,103 L88.1009174,96 L84.5412844,96 L84.5412844,103 L88.1009174,103 Z M72.9724771,103 L72.9724771,96 L52.5045872,96 L52.5045872,103 L72.9724771,103 Z M246,91 L246,96 L313,96 L313,91 L246,91 Z M283,88 L283,21 L263,21 L263,88 L283,88 Z M236,34 L236,29 L215,29 L215,34 L236,34 Z M72.9724771,27 L52.5045872,27 L52.5045872,93 L72.9724771,93 L72.9724771,27 Z M75.7825144,24 L74.1293469,18 L68.5229358,18 L58.733945,18 L52.3265946,18 L50.5844581,24 L75.7825144,24 Z M32.9266055,103 L32.9266055,99 L29.3669725,99 L29.3669725,103 L32.9266055,103 Z M35.5963303,103 L40.0458716,103 L40.0458716,99 L35.5963303,99 L35.5963303,103 Z M26.6972477,103 L26.6972477,99 L16.0183486,99 L16.0183486,103 L26.6972477,103 Z M13.3486239,103 L13.3486239,99 L9.78899083,99 L9.78899083,103 L13.3486239,103 Z M7.11926606,103 L7.11926606,99 L2.66972477,99 L2.66972477,103 L7.11926606,103 Z M2.66972477,96 L40.0458716,96 L40.0458716,92 L31.8073394,92 L6,92 L2.66972477,92 L2.66972477,96 Z M37.3761468,48 L37.3761468,83.6651376 C37.3761468,84.4023618 36.7785085,85 36.0412844,85 C35.3040603,85 34.706422,84.4023618 34.706422,83.6651376 L34.706422,48 L34.706422,47 C34.706422,45.8954305 35.6018525,45 36.706422,45 L42.9954128,45 C43.82384,45 44.4954128,45.6715729 44.4954128,46.5 C44.4954128,47.3284271 43.82384,48 42.9954128,48 L37.3761468,48 Z M83.206422,53 C83.9436462,53 84.5412844,53.5976382 84.5412844,54.3348624 L84.5412844,57.6651376 C84.5412844,58.4023618 83.9436462,59 83.206422,59 C82.4691979,59 81.8715596,58.4023618 81.8715596,57.6651376 L81.8715596,54.3348624 C81.8715596,53.5976382 82.4691979,53 83.206422,53 Z M88.3348624,53 C89.0720865,53 89.6697248,53.5976382 89.6697248,54.3348624 L89.6697248,57.6651376 C89.6697248,58.4023618 89.0720865,59 88.3348624,59 C87.5976382,59 87,58.4023618 87,57.6651376 L87,54.3348624 C87,53.5976382 87.5976382,53 88.3348624,53 Z M113.334862,67 C114.072087,67 114.669725,67.5976382 114.669725,68.3348624 L114.669725,71.6651376 C114.669725,72.4023618 114.072087,73 113.334862,73 C112.597638,73 112,72.4023618 112,71.6651376 L112,68.3348624 C112,67.5976382 112.597638,67 113.334862,67 Z M108.334862,67 C109.072087,67 109.669725,67.5976382 109.669725,68.3348624 L109.669725,71.6651376 C109.669725,72.4023618 109.072087,73 108.334862,73 C107.597638,73 107,72.4023618 107,71.6651376 L107,68.3348624 C107,67.5976382 107.597638,67 108.334862,67 Z M115.334862,87 C116.072087,87 116.669725,87.5976382 116.669725,88.3348624 L116.669725,91.6651376 C116.669725,92.4023618 116.072087,93 115.334862,93 C114.597638,93 114,92.4023618 114,91.6651376 L114,88.3348624 C114,87.5976382 114.597638,87 115.334862,87 Z M110.334862,87 C111.072087,87 111.669725,87.5976382 111.669725,88.3348624 L111.669725,91.6651376 C111.669725,92.4023618 111.072087,93 110.334862,93 C109.597638,93 109,92.4023618 109,91.6651376 L109,88.3348624 C109,87.5976382 109.597638,87 110.334862,87 Z M125.334862,87 C126.072087,87 126.669725,87.5976382 126.669725,88.3348624 L126.669725,91.6651376 C126.669725,92.4023618 126.072087,93 125.334862,93 C124.597638,93 124,92.4023618 124,91.6651376 L124,88.3348624 C124,87.5976382 124.597638,87 125.334862,87 Z M120.334862,87 C121.072087,87 121.669725,87.5976382 121.669725,88.3348624 L121.669725,91.6651376 C121.669725,92.4023618 121.072087,93 120.334862,93 C119.597638,93 119,92.4023618 119,91.6651376 L119,88.3348624 C119,87.5976382 119.597638,87 120.334862,87 Z M135.334862,87 C136.072087,87 136.669725,87.5976382 136.669725,88.3348624 L136.669725,91.6651376 C136.669725,92.4023618 136.072087,93 135.334862,93 C134.597638,93 134,92.4023618 134,91.6651376 L134,88.3348624 C134,87.5976382 134.597638,87 135.334862,87 Z M130.334862,87 C131.072087,87 131.669725,87.5976382 131.669725,88.3348624 L131.669725,91.6651376 C131.669725,92.4023618 131.072087,93 130.334862,93 C129.597638,93 129,92.4023618 129,91.6651376 L129,88.3348624 C129,87.5976382 129.597638,87 130.334862,87 Z M145.334862,87 C146.072087,87 146.669725,87.5976382 146.669725,88.3348624 L146.669725,91.6651376 C146.669725,92.4023618 146.072087,93 145.334862,93 C144.597638,93 144,92.4023618 144,91.6651376 L144,88.3348624 C144,87.5976382 144.597638,87 145.334862,87 Z M140.334862,87 C141.072087,87 141.669725,87.5976382 141.669725,88.3348624 L141.669725,91.6651376 C141.669725,92.4023618 141.072087,93 140.334862,93 C139.597638,93 139,92.4023618 139,91.6651376 L139,88.3348624 C139,87.5976382 139.597638,87 140.334862,87 Z M155.334862,87 C156.072087,87 156.669725,87.5976382 156.669725,88.3348624 L156.669725,91.6651376 C156.669725,92.4023618 156.072087,93 155.334862,93 C154.597638,93 154,92.4023618 154,91.6651376 L154,88.3348624 C154,87.5976382 154.597638,87 155.334862,87 Z M150.334862,87 C151.072087,87 151.669725,87.5976382 151.669725,88.3348624 L151.669725,91.6651376 C151.669725,92.4023618 151.072087,93 150.334862,93 C149.597638,93 149,92.4023618 149,91.6651376 L149,88.3348624 C149,87.5976382 149.597638,87 150.334862,87 Z M165.334862,87 C166.072087,87 166.669725,87.5976382 166.669725,88.3348624 L166.669725,91.6651376 C166.669725,92.4023618 166.072087,93 165.334862,93 C164.597638,93 164,92.4023618 164,91.6651376 L164,88.3348624 C164,87.5976382 164.597638,87 165.334862,87 Z M160.334862,87 C161.072087,87 161.669725,87.5976382 161.669725,88.3348624 L161.669725,91.6651376 C161.669725,92.4023618 161.072087,93 160.334862,93 C159.597638,93 159,92.4023618 159,91.6651376 L159,88.3348624 C159,87.5976382 159.597638,87 160.334862,87 Z M175.334862,87 C176.072087,87 176.669725,87.5976382 176.669725,88.3348624 L176.669725,91.6651376 C176.669725,92.4023618 176.072087,93 175.334862,93 C174.597638,93 174,92.4023618 174,91.6651376 L174,88.3348624 C174,87.5976382 174.597638,87 175.334862,87 Z M170.334862,87 C171.072087,87 171.669725,87.5976382 171.669725,88.3348624 L171.669725,91.6651376 C171.669725,92.4023618 171.072087,93 170.334862,93 C169.597638,93 169,92.4023618 169,91.6651376 L169,88.3348624 C169,87.5976382 169.597638,87 170.334862,87 Z M185.334862,87 C186.072087,87 186.669725,87.5976382 186.669725,88.3348624 L186.669725,91.6651376 C186.669725,92.4023618 186.072087,93 185.334862,93 C184.597638,93 184,92.4023618 184,91.6651376 L184,88.3348624 C184,87.5976382 184.597638,87 185.334862,87 Z M180.334862,87 C181.072087,87 181.669725,87.5976382 181.669725,88.3348624 L181.669725,91.6651376 C181.669725,92.4023618 181.072087,93 180.334862,93 C179.597638,93 179,92.4023618 179,91.6651376 L179,88.3348624 C179,87.5976382 179.597638,87 180.334862,87 Z M83.206422,64 C83.9436462,64 84.5412844,64.5976382 84.5412844,65.3348624 L84.5412844,68.6651376 C84.5412844,69.4023618 83.9436462,70 83.206422,70 C82.4691979,70 81.8715596,69.4023618 81.8715596,68.6651376 L81.8715596,65.3348624 C81.8715596,64.5976382 82.4691979,64 83.206422,64 Z M88.5458716,64 C89.2830957,64 89.8807339,64.5976382 89.8807339,65.3348624 L89.8807339,68.6651376 C89.8807339,69.4023618 89.2830957,70 88.5458716,70 C87.8086474,70 87.2110092,69.4023618 87.2110092,68.6651376 L87.2110092,65.3348624 C87.2110092,64.5976382 87.8086474,64 88.5458716,64 Z M83.206422,75 C83.9436462,75 84.5412844,75.5976382 84.5412844,76.3348624 L84.5412844,79.6651376 C84.5412844,80.4023618 83.9436462,81 83.206422,81 C82.4691979,81 81.8715596,80.4023618 81.8715596,79.6651376 L81.8715596,76.3348624 C81.8715596,75.5976382 82.4691979,75 83.206422,75 Z M88.5458716,75 C89.2830957,75 89.8807339,75.5976382 89.8807339,76.3348624 L89.8807339,79.6651376 C89.8807339,80.4023618 89.2830957,81 88.5458716,81 C87.8086474,81 87.2110092,80.4023618 87.2110092,79.6651376 L87.2110092,76.3348624 C87.2110092,75.5976382 87.8086474,75 88.5458716,75 Z M64.3690676,3 L62.8878131,3 L61.7361671,15 L65.5207136,15 L64.3690676,3 Z M8.89908257,89 L29.3669725,89 L29.3669725,22.1285736 L8.89908257,14.3999939 L8.89908257,89 Z M24.3348624,27 C25.0720865,27 25.6697248,27.5976382 25.6697248,28.3348624 L25.6697248,31.6651376 C25.6697248,32.4023618 25.0720865,33 24.3348624,33 C23.5976382,33 23,32.4023618 23,31.6651376 L23,28.3348624 C23,27.5976382 23.5976382,27 24.3348624,27 Z M24.3348624,38 C25.0720865,38 25.6697248,38.5976382 25.6697248,39.3348624 L25.6697248,42.6651376 C25.6697248,43.4023618 25.0720865,44 24.3348624,44 C23.5976382,44 23,43.4023618 23,42.6651376 L23,39.3348624 C23,38.5976382 23.5976382,38 24.3348624,38 Z M19.3348624,27 C20.0720865,27 20.6697248,27.5976382 20.6697248,28.3348624 L20.6697248,31.6651376 C20.6697248,32.4023618 20.0720865,33 19.3348624,33 C18.5976382,33 18,32.4023618 18,31.6651376 L18,28.3348624 C18,27.5976382 18.5976382,27 19.3348624,27 Z M19.3348624,38 C20.0720865,38 20.6697248,38.5976382 20.6697248,39.3348624 L20.6697248,42.6651376 C20.6697248,43.4023618 20.0720865,44 19.3348624,44 C18.5976382,44 18,43.4023618 18,42.6651376 L18,39.3348624 C18,38.5976382 18.5976382,38 19.3348624,38 Z M13.3348624,27 C14.0720865,27 14.6697248,27.5976382 14.6697248,28.3348624 L14.6697248,31.6651376 C14.6697248,32.4023618 14.0720865,33 13.3348624,33 C12.5976382,33 12,32.4023618 12,31.6651376 L12,28.3348624 C12,27.5976382 12.5976382,27 13.3348624,27 Z M13.3348624,38 C14.0720865,38 14.6697248,38.5976382 14.6697248,39.3348624 L14.6697248,42.6651376 C14.6697248,43.4023618 14.0720865,44 13.3348624,44 C12.5976382,44 12,43.4023618 12,42.6651376 L12,39.3348624 C12,38.5976382 12.5976382,38 13.3348624,38 Z M24.3348624,49 C25.0720865,49 25.6697248,49.5976382 25.6697248,50.3348624 L25.6697248,53.6651376 C25.6697248,54.4023618 25.0720865,55 24.3348624,55 C23.5976382,55 23,54.4023618 23,53.6651376 L23,50.3348624 C23,49.5976382 23.5976382,49 24.3348624,49 Z M19.3348624,49 C20.0720865,49 20.6697248,49.5976382 20.6697248,50.3348624 L20.6697248,53.6651376 C20.6697248,54.4023618 20.0720865,55 19.3348624,55 C18.5976382,55 18,54.4023618 18,53.6651376 L18,50.3348624 C18,49.5976382 18.5976382,49 19.3348624,49 Z M13.3348624,49 C14.0720865,49 14.6697248,49.5976382 14.6697248,50.3348624 L14.6697248,53.6651376 C14.6697248,54.4023618 14.0720865,55 13.3348624,55 C12.5976382,55 12,54.4023618 12,53.6651376 L12,50.3348624 C12,49.5976382 12.5976382,49 13.3348624,49 Z M24.3348624,60 C25.0720865,60 25.6697248,60.5976382 25.6697248,61.3348624 L25.6697248,64.6651376 C25.6697248,65.4023618 25.0720865,66 24.3348624,66 C23.5976382,66 23,65.4023618 23,64.6651376 L23,61.3348624 C23,60.5976382 23.5976382,60 24.3348624,60 Z M19.3348624,60 C20.0720865,60 20.6697248,60.5976382 20.6697248,61.3348624 L20.6697248,64.6651376 C20.6697248,65.4023618 20.0720865,66 19.3348624,66 C18.5976382,66 18,65.4023618 18,64.6651376 L18,61.3348624 C18,60.5976382 18.5976382,60 19.3348624,60 Z M13.3348624,60 C14.0720865,60 14.6697248,60.5976382 14.6697248,61.3348624 L14.6697248,64.6651376 C14.6697248,65.4023618 14.0720865,66 13.3348624,66 C12.5976382,66 12,65.4023618 12,64.6651376 L12,61.3348624 C12,60.5976382 12.5976382,60 13.3348624,60 Z M24.3348624,71 C25.0720865,71 25.6697248,71.5976382 25.6697248,72.3348624 L25.6697248,75.6651376 C25.6697248,76.4023618 25.0720865,77 24.3348624,77 C23.5976382,77 23,76.4023618 23,75.6651376 L23,72.3348624 C23,71.5976382 23.5976382,71 24.3348624,71 Z M42.2706422,53 C43.0078663,53 43.6055046,53.5976382 43.6055046,54.3348624 L43.6055046,57.6651376 C43.6055046,58.4023618 43.0078663,59 42.2706422,59 C41.5334181,59 40.9357798,58.4023618 40.9357798,57.6651376 L40.9357798,54.3348624 C40.9357798,53.5976382 41.5334181,53 42.2706422,53 Z M42.2706422,64 C43.0078663,64 43.6055046,64.5976382 43.6055046,65.3348624 L43.6055046,68.6651376 C43.6055046,69.4023618 43.0078663,70 42.2706422,70 C41.5334181,70 40.9357798,69.4023618 40.9357798,68.6651376 L40.9357798,65.3348624 C40.9357798,64.5976382 41.5334181,64 42.2706422,64 Z M42.2706422,75 C43.0078663,75 43.6055046,75.5976382 43.6055046,76.3348624 L43.6055046,79.6651376 C43.6055046,80.4023618 43.0078663,81 42.2706422,81 C41.5334181,81 40.9357798,80.4023618 40.9357798,79.6651376 L40.9357798,76.3348624 C40.9357798,75.5976382 41.5334181,75 42.2706422,75 Z M57.3990826,78 C58.1363067,78 58.733945,78.5976382 58.733945,79.3348624 L58.733945,82.6651376 C58.733945,83.4023618 58.1363067,84 57.3990826,84 C56.6618584,84 56.0642202,83.4023618 56.0642202,82.6651376 L56.0642202,79.3348624 C56.0642202,78.5976382 56.6618584,78 57.3990826,78 Z M62.7385321,78 C63.4757562,78 64.0733945,78.5976382 64.0733945,79.3348624 L64.0733945,82.6651376 C64.0733945,83.4023618 63.4757562,84 62.7385321,84 C62.001308,84 61.4036697,83.4023618 61.4036697,82.6651376 L61.4036697,79.3348624 C61.4036697,78.5976382 62.001308,78 62.7385321,78 Z M68.0779817,78 C68.8152058,78 69.412844,78.5976382 69.412844,79.3348624 L69.412844,82.6651376 C69.412844,83.4023618 68.8152058,84 68.0779817,84 C67.3407575,84 66.7431193,83.4023618 66.7431193,82.6651376 L66.7431193,79.3348624 C66.7431193,78.5976382 67.3407575,78 68.0779817,78 Z M57.3990826,67 C58.1363067,67 58.733945,67.5976382 58.733945,68.3348624 L58.733945,71.6651376 C58.733945,72.4023618 58.1363067,73 57.3990826,73 C56.6618584,73 56.0642202,72.4023618 56.0642202,71.6651376 L56.0642202,68.3348624 C56.0642202,67.5976382 56.6618584,67 57.3990826,67 Z M62.7385321,67 C63.4757562,67 64.0733945,67.5976382 64.0733945,68.3348624 L64.0733945,71.6651376 C64.0733945,72.4023618 63.4757562,73 62.7385321,73 C62.001308,73 61.4036697,72.4023618 61.4036697,71.6651376 L61.4036697,68.3348624 C61.4036697,67.5976382 62.001308,67 62.7385321,67 Z M68.0779817,67 C68.8152058,67 69.412844,67.5976382 69.412844,68.3348624 L69.412844,71.6651376 C69.412844,72.4023618 68.8152058,73 68.0779817,73 C67.3407575,73 66.7431193,72.4023618 66.7431193,71.6651376 L66.7431193,68.3348624 C66.7431193,67.5976382 67.3407575,67 68.0779817,67 Z M57.3990826,56 C58.1363067,56 58.733945,56.5976382 58.733945,57.3348624 L58.733945,60.6651376 C58.733945,61.4023618 58.1363067,62 57.3990826,62 C56.6618584,62 56.0642202,61.4023618 56.0642202,60.6651376 L56.0642202,57.3348624 C56.0642202,56.5976382 56.6618584,56 57.3990826,56 Z M62.7385321,56 C63.4757562,56 64.0733945,56.5976382 64.0733945,57.3348624 L64.0733945,60.6651376 C64.0733945,61.4023618 63.4757562,62 62.7385321,62 C62.001308,62 61.4036697,61.4023618 61.4036697,60.6651376 L61.4036697,57.3348624 C61.4036697,56.5976382 62.001308,56 62.7385321,56 Z M68.0779817,56 C68.8152058,56 69.412844,56.5976382 69.412844,57.3348624 L69.412844,60.6651376 C69.412844,61.4023618 68.8152058,62 68.0779817,62 C67.3407575,62 66.7431193,61.4023618 66.7431193,60.6651376 L66.7431193,57.3348624 C66.7431193,56.5976382 67.3407575,56 68.0779817,56 Z M57.3348624,45 C58.0720865,45 58.6697248,45.5976382 58.6697248,46.3348624 L58.6697248,49.6651376 C58.6697248,50.4023618 58.0720865,51 57.3348624,51 C56.5976382,51 56,50.4023618 56,49.6651376 L56,46.3348624 C56,45.5976382 56.5976382,45 57.3348624,45 Z M220.334862,41 C221.072087,41 221.669725,41.5976382 221.669725,42.3348624 L221.669725,45.6651376 C221.669725,46.4023618 221.072087,47 220.334862,47 C219.597638,47 219,46.4023618 219,45.6651376 L219,42.3348624 C219,41.5976382 219.597638,41 220.334862,41 Z M220.334862,52 C221.072087,52 221.669725,52.5976382 221.669725,53.3348624 L221.669725,56.6651376 C221.669725,57.4023618 221.072087,58 220.334862,58 C219.597638,58 219,57.4023618 219,56.6651376 L219,53.3348624 C219,52.5976382 219.597638,52 220.334862,52 Z M62.3348624,45 C63.0720865,45 63.6697248,45.5976382 63.6697248,46.3348624 L63.6697248,49.6651376 C63.6697248,50.4023618 63.0720865,51 62.3348624,51 C61.5976382,51 61,50.4023618 61,49.6651376 L61,46.3348624 C61,45.5976382 61.5976382,45 62.3348624,45 Z M225.334862,41 C226.072087,41 226.669725,41.5976382 226.669725,42.3348624 L226.669725,45.6651376 C226.669725,46.4023618 226.072087,47 225.334862,47 C224.597638,47 224,46.4023618 224,45.6651376 L224,42.3348624 C224,41.5976382 224.597638,41 225.334862,41 Z M225.334862,52 C226.072087,52 226.669725,52.5976382 226.669725,53.3348624 L226.669725,56.6651376 C226.669725,57.4023618 226.072087,58 225.334862,58 C224.597638,58 224,57.4023618 224,56.6651376 L224,53.3348624 C224,52.5976382 224.597638,52 225.334862,52 Z M68.3348624,45 C69.0720865,45 69.6697248,45.5976382 69.6697248,46.3348624 L69.6697248,49.6651376 C69.6697248,50.4023618 69.0720865,51 68.3348624,51 C67.5976382,51 67,50.4023618 67,49.6651376 L67,46.3348624 C67,45.5976382 67.5976382,45 68.3348624,45 Z M230.334862,41 C231.072087,41 231.669725,41.5976382 231.669725,42.3348624 L231.669725,45.6651376 C231.669725,46.4023618 231.072087,47 230.334862,47 C229.597638,47 229,46.4023618 229,45.6651376 L229,42.3348624 C229,41.5976382 229.597638,41 230.334862,41 Z M230.334862,52 C231.072087,52 231.669725,52.5976382 231.669725,53.3348624 L231.669725,56.6651376 C231.669725,57.4023618 231.072087,58 230.334862,58 C229.597638,58 229,57.4023618 229,56.6651376 L229,53.3348624 C229,52.5976382 229.597638,52 230.334862,52 Z M220.334862,63 C221.072087,63 221.669725,63.5976382 221.669725,64.3348624 L221.669725,67.6651376 C221.669725,68.4023618 221.072087,69 220.334862,69 C219.597638,69 219,68.4023618 219,67.6651376 L219,64.3348624 C219,63.5976382 219.597638,63 220.334862,63 Z M225.334862,63 C226.072087,63 226.669725,63.5976382 226.669725,64.3348624 L226.669725,67.6651376 C226.669725,68.4023618 226.072087,69 225.334862,69 C224.597638,69 224,68.4023618 224,67.6651376 L224,64.3348624 C224,63.5976382 224.597638,63 225.334862,63 Z M230.334862,63 C231.072087,63 231.669725,63.5976382 231.669725,64.3348624 L231.669725,67.6651376 C231.669725,68.4023618 231.072087,69 230.334862,69 C229.597638,69 229,68.4023618 229,67.6651376 L229,64.3348624 C229,63.5976382 229.597638,63 230.334862,63 Z M220.334862,74 C221.072087,74 221.669725,74.5976382 221.669725,75.3348624 L221.669725,78.6651376 C221.669725,79.4023618 221.072087,80 220.334862,80 C219.597638,80 219,79.4023618 219,78.6651376 L219,75.3348624 C219,74.5976382 219.597638,74 220.334862,74 Z M225.334862,74 C226.072087,74 226.669725,74.5976382 226.669725,75.3348624 L226.669725,78.6651376 C226.669725,79.4023618 226.072087,80 225.334862,80 C224.597638,80 224,79.4023618 224,78.6651376 L224,75.3348624 C224,74.5976382 224.597638,74 225.334862,74 Z M230.334862,74 C231.072087,74 231.669725,74.5976382 231.669725,75.3348624 L231.669725,78.6651376 C231.669725,79.4023618 231.072087,80 230.334862,80 C229.597638,80 229,79.4023618 229,78.6651376 L229,75.3348624 C229,74.5976382 229.597638,74 230.334862,74 Z M200.334862,45 C201.072087,45 201.669725,45.5976382 201.669725,46.3348624 L201.669725,49.6651376 C201.669725,50.4023618 201.072087,51 200.334862,51 C199.597638,51 199,50.4023618 199,49.6651376 L199,46.3348624 C199,45.5976382 199.597638,45 200.334862,45 Z M200.334862,56 C201.072087,56 201.669725,56.5976382 201.669725,57.3348624 L201.669725,60.6651376 C201.669725,61.4023618 201.072087,62 200.334862,62 C199.597638,62 199,61.4023618 199,60.6651376 L199,57.3348624 C199,56.5976382 199.597638,56 200.334862,56 Z M200.334862,78 C201.072087,78 201.669725,78.5976382 201.669725,79.3348624 L201.669725,82.6651376 C201.669725,83.4023618 201.072087,84 200.334862,84 C199.597638,84 199,83.4023618 199,82.6651376 L199,79.3348624 C199,78.5976382 199.597638,78 200.334862,78 Z M200.334862,67 C201.072087,67 201.669725,67.5976382 201.669725,68.3348624 L201.669725,71.6651376 C201.669725,72.4023618 201.072087,73 200.334862,73 C199.597638,73 199,72.4023618 199,71.6651376 L199,68.3348624 C199,67.5976382 199.597638,67 200.334862,67 Z M220.334862,85 C221.072087,85 221.669725,85.5976382 221.669725,86.3348624 L221.669725,89.6651376 C221.669725,90.4023618 221.072087,91 220.334862,91 C219.597638,91 219,90.4023618 219,89.6651376 L219,86.3348624 C219,85.5976382 219.597638,85 220.334862,85 Z M225.334862,85 C226.072087,85 226.669725,85.5976382 226.669725,86.3348624 L226.669725,89.6651376 C226.669725,90.4023618 226.072087,91 225.334862,91 C224.597638,91 224,90.4023618 224,89.6651376 L224,86.3348624 C224,85.5976382 224.597638,85 225.334862,85 Z M268.334862,26 C269.072087,26 269.669725,26.5976382 269.669725,27.3348624 L269.669725,30.6651376 C269.669725,31.4023618 269.072087,32 268.334862,32 C267.597638,32 267,31.4023618 267,30.6651376 L267,27.3348624 C267,26.5976382 267.597638,26 268.334862,26 Z M268.334862,37 C269.072087,37 269.669725,37.5976382 269.669725,38.3348624 L269.669725,41.6651376 C269.669725,42.4023618 269.072087,43 268.334862,43 C267.597638,43 267,42.4023618 267,41.6651376 L267,38.3348624 C267,37.5976382 267.597638,37 268.334862,37 Z M273.334862,26 C274.072087,26 274.669725,26.5976382 274.669725,27.3348624 L274.669725,30.6651376 C274.669725,31.4023618 274.072087,32 273.334862,32 C272.597638,32 272,31.4023618 272,30.6651376 L272,27.3348624 C272,26.5976382 272.597638,26 273.334862,26 Z M273.334862,37 C274.072087,37 274.669725,37.5976382 274.669725,38.3348624 L274.669725,41.6651376 C274.669725,42.4023618 274.072087,43 273.334862,43 C272.597638,43 272,42.4023618 272,41.6651376 L272,38.3348624 C272,37.5976382 272.597638,37 273.334862,37 Z M278.334862,26 C279.072087,26 279.669725,26.5976382 279.669725,27.3348624 L279.669725,30.6651376 C279.669725,31.4023618 279.072087,32 278.334862,32 C277.597638,32 277,31.4023618 277,30.6651376 L277,27.3348624 C277,26.5976382 277.597638,26 278.334862,26 Z M278.334862,37 C279.072087,37 279.669725,37.5976382 279.669725,38.3348624 L279.669725,41.6651376 C279.669725,42.4023618 279.072087,43 278.334862,43 C277.597638,43 277,42.4023618 277,41.6651376 L277,38.3348624 C277,37.5976382 277.597638,37 278.334862,37 Z M268.334862,48 C269.072087,48 269.669725,48.5976382 269.669725,49.3348624 L269.669725,52.6651376 C269.669725,53.4023618 269.072087,54 268.334862,54 C267.597638,54 267,53.4023618 267,52.6651376 L267,49.3348624 C267,48.5976382 267.597638,48 268.334862,48 Z M273.334862,48 C274.072087,48 274.669725,48.5976382 274.669725,49.3348624 L274.669725,52.6651376 C274.669725,53.4023618 274.072087,54 273.334862,54 C272.597638,54 272,53.4023618 272,52.6651376 L272,49.3348624 C272,48.5976382 272.597638,48 273.334862,48 Z M278.334862,48 C279.072087,48 279.669725,48.5976382 279.669725,49.3348624 L279.669725,52.6651376 C279.669725,53.4023618 279.072087,54 278.334862,54 C277.597638,54 277,53.4023618 277,52.6651376 L277,49.3348624 C277,48.5976382 277.597638,48 278.334862,48 Z M268.334862,58 C269.072087,58 269.669725,58.5976382 269.669725,59.3348624 L269.669725,62.6651376 C269.669725,63.4023618 269.072087,64 268.334862,64 C267.597638,64 267,63.4023618 267,62.6651376 L267,59.3348624 C267,58.5976382 267.597638,58 268.334862,58 Z M273.334862,58 C274.072087,58 274.669725,58.5976382 274.669725,59.3348624 L274.669725,62.6651376 C274.669725,63.4023618 274.072087,64 273.334862,64 C272.597638,64 272,63.4023618 272,62.6651376 L272,59.3348624 C272,58.5976382 272.597638,58 273.334862,58 Z M278.334862,58 C279.072087,58 279.669725,58.5976382 279.669725,59.3348624 L279.669725,62.6651376 C279.669725,63.4023618 279.072087,64 278.334862,64 C277.597638,64 277,63.4023618 277,62.6651376 L277,59.3348624 C277,58.5976382 277.597638,58 278.334862,58 Z M268.334862,68 C269.072087,68 269.669725,68.5976382 269.669725,69.3348624 L269.669725,72.6651376 C269.669725,73.4023618 269.072087,74 268.334862,74 C267.597638,74 267,73.4023618 267,72.6651376 L267,69.3348624 C267,68.5976382 267.597638,68 268.334862,68 Z M273.334862,68 C274.072087,68 274.669725,68.5976382 274.669725,69.3348624 L274.669725,72.6651376 C274.669725,73.4023618 274.072087,74 273.334862,74 C272.597638,74 272,73.4023618 272,72.6651376 L272,69.3348624 C272,68.5976382 272.597638,68 273.334862,68 Z M278.334862,68 C279.072087,68 279.669725,68.5976382 279.669725,69.3348624 L279.669725,72.6651376 C279.669725,73.4023618 279.072087,74 278.334862,74 C277.597638,74 277,73.4023618 277,72.6651376 L277,69.3348624 C277,68.5976382 277.597638,68 278.334862,68 Z M268.334862,78 C269.072087,78 269.669725,78.5976382 269.669725,79.3348624 L269.669725,82.6651376 C269.669725,83.4023618 269.072087,84 268.334862,84 C267.597638,84 267,83.4023618 267,82.6651376 L267,79.3348624 C267,78.5976382 267.597638,78 268.334862,78 Z M273.334862,78 C274.072087,78 274.669725,78.5976382 274.669725,79.3348624 L274.669725,82.6651376 C274.669725,83.4023618 274.072087,84 273.334862,84 C272.597638,84 272,83.4023618 272,82.6651376 L272,79.3348624 C272,78.5976382 272.597638,78 273.334862,78 Z M278.334862,78 C279.072087,78 279.669725,78.5976382 279.669725,79.3348624 L279.669725,82.6651376 C279.669725,83.4023618 279.072087,84 278.334862,84 C277.597638,84 277,83.4023618 277,82.6651376 L277,79.3348624 C277,78.5976382 277.597638,78 278.334862,78 Z M244.334862,74 C245.072087,74 245.669725,74.5976382 245.669725,75.3348624 L245.669725,78.6651376 C245.669725,79.4023618 245.072087,80 244.334862,80 C243.597638,80 243,79.4023618 243,78.6651376 L243,75.3348624 C243,74.5976382 243.597638,74 244.334862,74 Z M249.334862,74 C250.072087,74 250.669725,74.5976382 250.669725,75.3348624 L250.669725,78.6651376 C250.669725,79.4023618 250.072087,80 249.334862,80 C248.597638,80 248,79.4023618 248,78.6651376 L248,75.3348624 C248,74.5976382 248.597638,74 249.334862,74 Z M254.334862,74 C255.072087,74 255.669725,74.5976382 255.669725,75.3348624 L255.669725,78.6651376 C255.669725,79.4023618 255.072087,80 254.334862,80 C253.597638,80 253,79.4023618 253,78.6651376 L253,75.3348624 C253,74.5976382 253.597638,74 254.334862,74 Z M297.334862,46 C298.072087,46 298.669725,46.5976382 298.669725,47.3348624 L298.669725,50.6651376 C298.669725,51.4023618 298.072087,52 297.334862,52 C296.597638,52 296,51.4023618 296,50.6651376 L296,47.3348624 C296,46.5976382 296.597638,46 297.334862,46 Z M297.334862,56 C298.072087,56 298.669725,56.5976382 298.669725,57.3348624 L298.669725,60.6651376 C298.669725,61.4023618 298.072087,62 297.334862,62 C296.597638,62 296,61.4023618 296,60.6651376 L296,57.3348624 C296,56.5976382 296.597638,56 297.334862,56 Z M297.334862,66 C298.072087,66 298.669725,66.5976382 298.669725,67.3348624 L298.669725,70.6651376 C298.669725,71.4023618 298.072087,72 297.334862,72 C296.597638,72 296,71.4023618 296,70.6651376 L296,67.3348624 C296,66.5976382 296.597638,66 297.334862,66 Z M297.334862,76 C298.072087,76 298.669725,76.5976382 298.669725,77.3348624 L298.669725,80.6651376 C298.669725,81.4023618 298.072087,82 297.334862,82 C296.597638,82 296,81.4023618 296,80.6651376 L296,77.3348624 C296,76.5976382 296.597638,76 297.334862,76 Z M230.334862,85 C231.072087,85 231.669725,85.5976382 231.669725,86.3348624 L231.669725,89.6651376 C231.669725,90.4023618 231.072087,91 230.334862,91 C229.597638,91 229,90.4023618 229,89.6651376 L229,86.3348624 C229,85.5976382 229.597638,85 230.334862,85 Z M57.3990826,34 C58.1363067,34 58.733945,34.5976382 58.733945,35.3348624 L58.733945,38.6651376 C58.733945,39.4023618 58.1363067,40 57.3990826,40 C56.6618584,40 56.0642202,39.4023618 56.0642202,38.6651376 L56.0642202,35.3348624 C56.0642202,34.5976382 56.6618584,34 57.3990826,34 Z M62.7385321,34 C63.4757562,34 64.0733945,34.5976382 64.0733945,35.3348624 L64.0733945,38.6651376 C64.0733945,39.4023618 63.4757562,40 62.7385321,40 C62.001308,40 61.4036697,39.4023618 61.4036697,38.6651376 L61.4036697,35.3348624 C61.4036697,34.5976382 62.001308,34 62.7385321,34 Z M68.0779817,34 C68.8152058,34 69.412844,34.5976382 69.412844,35.3348624 L69.412844,38.6651376 C69.412844,39.4023618 68.8152058,40 68.0779817,40 C67.3407575,40 66.7431193,39.4023618 66.7431193,38.6651376 L66.7431193,35.3348624 C66.7431193,34.5976382 67.3407575,34 68.0779817,34 Z M19.3348624,71 C20.0720865,71 20.6697248,71.5976382 20.6697248,72.3348624 L20.6697248,75.6651376 C20.6697248,76.4023618 20.0720865,77 19.3348624,77 C18.5976382,77 18,76.4023618 18,75.6651376 L18,72.3348624 C18,71.5976382 18.5976382,71 19.3348624,71 Z M13.3348624,71 C14.0720865,71 14.6697248,71.5976382 14.6697248,72.3348624 L14.6697248,75.6651376 C14.6697248,76.4023618 14.0720865,77 13.3348624,77 C12.5976382,77 12,76.4023618 12,75.6651376 L12,72.3348624 C12,71.5976382 12.5976382,71 13.3348624,71 Z" id="Combined-Shape" fill="#D9D9DF"></path>
        </g>
    </g>
</svg>